<?xml version="1.0" encoding="UTF-8"?>
<svg id="Warstwa_1" data-name="Warstwa 1" xmlns="http://www.w3.org/2000/svg" viewBox="0 0 1677.68 388.82">
  <defs>
    <style>
      .cls-1 {
        fill: #fcf6f0;
      }
    </style>
  </defs>
  <path class="cls-1" d="M69.68,382.28c0-.59,0-2.38.61-4.16,3.64-10.11,7.88-20.81,12.12-30.32l35.14-87.99c-10.3,11.3-93.91,109.39-104.21,120.09-1.21,1.78-3.64,2.97-5.45,2.97-4.24,0-7.88-4.16-7.88-7.73,0-1.78.61-3.57,1.82-4.76,24.84-27.94,116.33-133.77,133.9-154.58C176.92,116.53,206.61,53.51,224.18,27.35,237.51,7.13,252.05,0,262.96,0c15.75,0,24.24,14.27,24.24,28.54,0,18.43-20.6,51.13-57.56,97.5-21.81,27.35-50.29,61.83-80.58,97.5-5.45,12.48-10.91,25.56-16.36,39.83,19.99-26.16,58.17-63.61,87.25-63.61,18.78,0,28.48,13.67,28.48,29.13,0,41.02-58.17,73.13-103.61,79.67,2.42,10.7,16.36,59.45,45.44,59.45,22.42,0,52.71-35.08,99.97-83.83,1.21-1.78,4.24-2.38,6.06-2.38,4.85,0,7.27,3.57,7.27,7.13,0,1.78-1.21,4.16-2.42,5.35-55.14,58.26-81.8,88.58-113.3,88.58s-46.05-36.27-56.35-66.59c-1.82-5.95-3.64-10.11-3.64-12.49,0-5.35,3.03-7.73,9.09-8.92,14.54-2.38,31.51-6.54,50.29-15.46,24.24-11.3,46.05-29.73,46.05-50.54,0-9.51-3.64-14.27-12.72-14.27-33.93,0-92.1,66.59-124.21,139.71l-6.06,14.86c-2.42,5.35-3.64,9.51-4.85,12.49-1.21,2.97-2.42,7.13-7.88,7.13s-7.88-3.57-7.88-6.54ZM236.91,35.08c-10.91,16.65-30.9,54.7-68.47,142.09,52.11-61.83,103.61-127.23,103.61-148.04,0-7.13-2.42-14.27-9.09-14.27s-16.36,5.95-26.05,20.21Z"/>
  <path class="cls-1" d="M279.92,334.12c0-39.24,26.66-98.1,78.16-131.39,1.21-.59,2.42-1.19,3.64-1.19,4.24,0,7.88,3.57,7.88,7.13,0,2.38-1.21,4.76-3.64,6.54-44.84,29.13-70.89,83.23-70.89,118.91,0,18.43,8.48,35.08,26.66,35.08,24.24,0,44.84-19.03,59.38-33.89-14.54-10.7-21.81-28.54-21.81-52.32,0-29.13,18.78-86.21,53.32-86.21,21.81,0,26.66,26.75,26.66,42.21,0,33.89-16.36,65.4-34.54,90.96,3.03.59,6.06,1.19,9.09,1.19,19.39,0,41.81-14.86,70.28-46.97,1.82-1.78,4.24-2.38,6.06-2.38,4.85,0,6.66,4.16,6.66,7.73,0,1.78-.61,3.57-1.82,4.76-24.84,27.35-52.11,51.72-81.8,51.72-6.06,0-12.12-1.19-18.78-3.57-19.99,22-44.84,41.62-72.71,41.62s-41.81-25.56-41.81-49.94ZM374.44,283c0,11.3,1.82,30.92,15.75,40.43,19.39-25.57,33.93-54.1,33.93-83.83,0-8.32-1.21-27.94-11.51-27.94-22.42,0-38.17,47.56-38.17,71.34Z"/>
  <path class="cls-1" d="M493.19,348.39c0-24.38,7.27-47.56,14.54-68.37l-12.72,13.67c-1.82,1.78-3.64,2.38-5.45,2.38-4.85,0-7.88-3.57-7.88-7.13,0-1.78.61-3.57,1.82-4.76,6.06-5.95,19.99-22,39.38-46.37,49.68-130.2,75.13-175.39,83.01-189.65C628.3,7.73,647.09,0,658.6,0c15.15,0,21.21,13.67,21.21,26.16,0,7.73-1.82,16.65-6.06,24.97-22.42,45.78-90.88,136.15-137.54,194.41-12.72,33.29-23.63,64.8-26.66,86.21-.61,6.54-1.21,11.89-1.21,16.05,0,11.89,1.21,21.4,14.54,21.4,18.78,0,67.86-60.64,92.7-85.02,1.82-1.78,3.64-2.97,6.06-2.97,4.85,0,7.27,4.16,7.27,7.73,0,1.78-1.21,4.16-2.42,5.35-26.05,25.57-74.53,90.37-105.43,90.37-20.6,0-27.87-19.62-27.87-36.27ZM619.22,55.29c-23.02,39.24-46.65,99.29-63.62,141.5,41.2-53.51,86.64-117.12,104.21-152.2,3.64-7.13,4.85-13.67,4.85-18.43,0-5.95-1.82-11.3-6.67-11.3-7.27,0-21.21,10.11-38.78,40.43Z"/>
  <path class="cls-1" d="M605.27,334.12c0-39.24,26.66-98.1,78.16-131.39,1.21-.59,2.42-1.19,3.64-1.19,4.24,0,7.88,3.57,7.88,7.13,0,2.38-1.21,4.76-3.64,6.54-44.84,29.13-70.89,83.23-70.89,118.91,0,18.43,8.48,35.08,26.66,35.08,24.24,0,44.84-19.03,59.38-33.89-14.54-10.7-21.81-28.54-21.81-52.32,0-29.13,18.78-86.21,53.32-86.21,21.81,0,26.66,26.75,26.66,42.21,0,33.89-16.36,65.4-34.54,90.96,3.03.59,6.06,1.19,9.09,1.19,19.39,0,41.81-14.86,70.28-46.97,1.82-1.78,4.24-2.38,6.06-2.38,4.85,0,6.67,4.16,6.67,7.73,0,1.78-.61,3.57-1.82,4.76-24.84,27.35-52.11,51.72-81.8,51.72-6.06,0-12.12-1.19-18.78-3.57-19.99,22-44.84,41.62-72.71,41.62s-41.81-25.56-41.81-49.94ZM699.79,283c0,11.3,1.82,30.92,15.75,40.43,19.39-25.57,33.93-54.1,33.93-83.83,0-8.32-1.21-27.94-11.51-27.94-22.42,0-38.17,47.56-38.17,71.34Z"/>
  <path class="cls-1" d="M865.19,360.28c0-18.43,18.18-48.16,29.69-65.99,0,0,14.54-23.78,22.42-39.83,2.42-5.35,4.24-10.11,4.24-13.67s-1.21-5.95-8.48-5.95h-12.72c-7.88,0-15.75-2.38-18.78-11.3-16.36,20.21-37.57,44.59-61.2,70.75-1.21,1.78-3.64,2.38-5.45,2.38-4.85,0-7.27-3.57-7.27-7.13,0-1.78.61-3.57,1.82-5.35,23.63-26.16,44.84-51.13,61.2-70.75,8.48-10.7,14.54-17.24,19.39-23.19,1.21-1.78,4.24-3.57,6.67-3.57,5.45,0,7.88,3.57,7.88,6.54,0,2.38-1.21,5.35-3.03,8.32-4.85,8.92-5.45,14.27-5.45,16.05,0,2.38,4.24,2.38,7.88,2.38h12.72c11.51,0,19.99,8.32,19.99,18.43,0,15.46-17.57,44.59-29.08,63.61-12.12,20.21-27.26,44.59-27.26,58.26,0,5.95,4.85,9.51,9.69,9.51,2.42,0,5.45-.59,7.88-2.38,30.9-22,63.01-61.24,85.43-83.23,1.21-1.19,3.64-2.38,5.45-2.38,3.64,0,7.88,3.57,7.88,7.13,0,1.78-1.21,4.16-2.42,5.35-19.39,20.81-58.77,65.4-87.86,85.61-4.85,2.97-10.91,4.76-16.36,4.76-14.54,0-24.84-11.3-24.84-24.38Z"/>
  <path class="cls-1" d="M973.04,334.12c0-39.24,26.66-98.1,78.16-131.39,1.21-.59,2.42-1.19,3.64-1.19,4.24,0,7.88,3.57,7.88,7.13,0,2.38-1.21,4.76-3.63,6.54-44.84,29.13-70.89,83.23-70.89,118.91,0,18.43,8.48,35.08,26.66,35.08,24.24,0,44.84-19.03,59.38-33.89-14.54-10.7-21.81-28.54-21.81-52.32,0-29.13,18.78-86.21,53.32-86.21,21.81,0,26.66,26.75,26.66,42.21,0,33.89-16.36,65.4-34.54,90.96,3.03.59,6.06,1.19,9.09,1.19,19.39,0,41.81-14.86,70.28-46.97,1.82-1.78,4.24-2.38,6.06-2.38,4.85,0,6.67,4.16,6.67,7.73,0,1.78-.61,3.57-1.82,4.76-24.84,27.35-52.11,51.72-81.8,51.72-6.06,0-12.12-1.19-18.78-3.57-19.99,22-44.84,41.62-72.71,41.62s-41.81-25.56-41.81-49.94ZM1067.56,283c0,11.3,1.82,30.92,15.75,40.43,19.39-25.57,33.93-54.1,33.93-83.83,0-8.32-1.21-27.94-11.51-27.94-22.42,0-38.17,47.56-38.17,71.34Z"/>
  <path class="cls-1" d="M1418.36,310.34c-24.24,39.83-55.14,73.72-90.28,73.72-25.45,0-31.51-17.84-31.51-36.27,0-10.11,1.82-22,4.85-34.48-30.29,37.46-66.04,71.94-93.31,71.94-18.78,0-25.45-12.48-25.45-27.35,0-20.21,11.51-50.54,29.08-89.77l-23.63,26.16c-1.82,1.78-3.03,2.38-5.45,2.38-4.85,0-7.27-4.16-7.27-7.73,0-1.78.61-3.57,1.82-4.76,39.38-42.21,50.9-58.86,61.2-77.29,0,0,.61-1.19,1.82-2.97,1.21-1.78,3.64-2.97,6.67-2.97,4.24,0,7.27,2.97,7.27,7.73,0,1.19-.61,2.38-1.21,3.57-6.67,14.86-12.12,29.13-19.99,46.37-15.75,34.48-35.14,79.07-35.14,99.88,0,7.73,1.82,11.89,9.69,11.89,32.11,0,80.58-60.64,111.49-106.42,10.3-24.97,21.81-45.18,26.66-52.32,1.82-2.38,4.85-5.95,9.69-5.95s7.88,3.57,7.88,7.13c0,11.3-23.02,46.37-30.9,58.26-10.91,26.16-21.21,55.89-21.21,76.69,0,13.67,3.64,22,17.57,22,37.57,0,70.89-53.51,95.13-99.29,7.88-25.57,19.99-48.75,27.26-59.45,2.42-3.57,5.45-5.35,7.88-5.35,5.45,0,7.88,4.16,7.88,8.32s-21.81,46.97-29.69,63.61c-3.03,9.51-4.85,17.84-4.85,24.38,0,11.3,6.67,17.84,18.18,17.84,13.94,0,31.51-11.89,51.5-35.67,1.82-1.78,4.24-2.38,6.06-2.38,4.85,0,6.67,3.57,6.67,7.13,0,1.78-.61,3.57-1.82,5.35-23.02,26.75-43.62,40.43-62.41,40.43-16.36,0-30.9-9.51-32.11-24.38Z"/>
  <path class="cls-1" d="M1489.86,335.31c0-49.94,47.87-136.15,101.18-136.15,18.78,0,30.9,10.11,30.9,26.75,0,27.35-36.96,60.64-111.48,76.1-3.64,12.49-5.45,23.19-5.45,34.48,0,20.21,9.09,33.89,29.69,33.89,28.48,0,76.34-25.56,130.27-86.21,1.21-1.78,3.64-2.38,6.06-2.38,4.85,0,6.66,4.76,6.66,7.73,0,1.78-.61,3.57-1.82,4.76-50.9,57.67-102.4,90.96-139.96,90.96-33.32,0-46.05-23.78-46.05-49.94ZM1517.12,285.37c63.01-15.46,89.67-43.4,89.67-60.05,0-8.92-10.3-11.3-15.75-11.3-31.51,0-61.8,45.18-73.92,71.34Z"/>
</svg>