<?xml version="1.0" encoding="UTF-8"?>
<svg id="Layer_1" data-name="Layer 1" xmlns="http://www.w3.org/2000/svg" viewBox="0 0 822.03 201.63">
  <defs>
    <style>
      .cls-1 {
        fill: #f3795d;
      }

      .cls-2 {
        fill: #2d346f;
      }

      .cls-3 {
        fill: #2cbaa5;
      }

      .cls-4 {
        fill: #f5c31d;
      }
    </style>
  </defs>
  <path class="cls-2" d="M19.74,180.48v20.11H0v-65.79h31.96c15.32,0,23.49,10.81,23.49,23.4s-8.27,22.27-23.49,22.27h-12.22ZM19.74,164.79h10.15c3.39,0,5.83-3.2,5.83-6.39,0-3.48-2.44-6.67-5.83-6.67h-10.15v13.07Z"/>
  <path class="cls-2" d="M95.65,178.42v22.18h-19.74v-65.79h31.95c15.32,0,23.5,10.34,23.5,22.93,0,9.68-4.98,16.73-13.63,19.45.85,6.2,3.85,9.12,7.71,9.12,2.26,0,4.7-.66,7.14-2.25l6.02,12.5c-4.79,3.29-10.53,5.07-17.2,5.07-17.1,0-20.3-16.45-21.05-23.21h-4.7ZM95.65,164.79h10.15c3.39,0,5.83-3.2,5.83-6.39,0-3.48-2.44-6.67-5.83-6.67h-10.15v13.07Z"/>
  <polygon class="cls-2" points="213.11 200.59 152.68 200.59 152.68 188.94 183.88 151.72 155.68 151.72 155.68 134.81 210.57 134.81 210.57 146.65 179.18 183.68 213.11 183.68 213.11 200.59"/>
  <polygon class="cls-2" points="234.32 200.59 234.32 134.81 282.16 134.81 282.16 151.72 254.06 151.72 254.06 160.27 278.59 160.27 278.59 175.31 254.06 175.31 254.06 183.68 282.16 183.68 282.16 200.59 234.32 200.59"/>
  <path class="cls-2" d="M304.79,200.59v-65.79h30.92c19.17,0,33.46,14.75,33.46,32.9s-14.28,32.89-33.46,32.89h-30.92ZM324.53,151.72v31.96h8.46c10.15,0,16.45-6.3,16.45-15.98s-6.29-16.07-16.45-15.98h-8.46Z"/>
  <path class="cls-2" d="M402.32,177.38c1.32,6.02,5.17,9.21,11.65,9.21,4.51,0,7.7-1.5,7.7-4.7,0-1.6-.85-3.66-5.55-5.16l-7.42-2.82c-3.2-1.03-19.17-5.26-19.36-19.27,0-12.69,10.71-20.86,25.09-20.86,12.41,0,20.3,6.11,24.06,17.11l-15.79,4.51c-1.32-3.67-3.19-6.58-7.89-6.58-3.2,0-6.2,1.32-6.2,4.13,0,1.88,1.31,3.57,5.35,4.98l7.33,2.54c14.66,5.08,19.27,11.47,19.55,20.77,0,14-12.6,20.39-26.88,20.39-15.22,0-25.56-7.33-27.54-20.58l15.88-3.66Z"/>
  <polygon class="cls-2" points="518.74 200.59 458.31 200.59 458.31 188.94 489.51 151.72 461.32 151.72 461.32 134.81 516.2 134.81 516.2 146.65 484.81 183.68 518.74 183.68 518.74 200.59"/>
  <path class="cls-2" d="M559.6,200.59h-19.74v-65.79h19.74v28.2l15.7-28.2h19.74v2.73l-17.01,28.39,5.92,13.44c3.01,6.67,4.79,6.95,7.52,6.95,1.51,0,3.57-.94,4.7-1.69l5.74,13.44c-5.83,2.54-8.37,3.57-14.01,3.57-7.7,0-16.17-2.54-21.05-14.1l-7.24-18.04v31.11Z"/>
  <path class="cls-2" d="M612.03,167.7c0-18.33,13.35-33.93,35.52-33.93s35.53,15.6,35.53,33.93-13.35,33.92-35.53,33.92-35.52-15.6-35.52-33.92M663.34,167.7c0-9.21-5.73-17.01-15.79-17.01s-15.78,7.8-15.78,17.01,5.73,17.01,15.78,17.01,15.79-7.8,15.79-17.01"/>
  <polygon class="cls-2" points="724.12 183.68 753.63 183.68 753.63 200.59 704.38 200.59 704.38 134.81 724.12 134.81 724.12 183.68"/>
  <polygon class="cls-2" points="774.19 200.59 774.19 134.81 822.03 134.81 822.03 151.72 793.93 151.72 793.93 160.27 818.46 160.27 818.46 175.31 793.93 175.31 793.93 183.68 822.03 183.68 822.03 200.59 774.19 200.59"/>
  <path class="cls-3" d="M193.61,110.14c0-.17,0-.68.17-1.2,1.03-2.91,2.23-6,3.43-8.74l9.94-25.35c-2.91,3.26-26.55,31.52-29.46,34.6-.34.51-1.03.86-1.54.86-1.2,0-2.22-1.2-2.22-2.23,0-.52.17-1.03.51-1.37,7.02-8.05,32.89-38.54,37.85-44.53,11.65-28.6,20.04-46.76,25.01-54.3,3.77-5.82,7.88-7.88,10.96-7.88,4.46,0,6.86,4.11,6.86,8.22,0,5.31-5.83,14.73-16.27,28.09-6.17,7.88-14.22,17.81-22.78,28.09-1.54,3.59-3.08,7.36-4.62,11.48,5.65-7.54,16.44-18.33,24.66-18.33,5.31,0,8.05,3.94,8.05,8.39,0,11.82-16.44,21.07-29.29,22.95.69,3.08,4.62,17.13,12.85,17.13,6.34,0,14.9-10.11,28.26-24.15.34-.52,1.2-.68,1.71-.68,1.37,0,2.06,1.03,2.06,2.06,0,.51-.34,1.2-.68,1.54-15.59,16.79-23.12,25.53-32.03,25.53s-13.02-10.45-15.93-19.19c-.52-1.71-1.03-2.91-1.03-3.6,0-1.54.85-2.22,2.57-2.57,4.11-.68,8.91-1.88,14.22-4.45,6.85-3.26,13.02-8.56,13.02-14.56,0-2.74-1.03-4.11-3.6-4.11-9.59,0-26.04,19.19-35.11,40.25l-1.71,4.28c-.69,1.54-1.03,2.74-1.37,3.6-.35.86-.69,2.06-2.23,2.06s-2.22-1.03-2.22-1.89M240.89,10.11c-3.08,4.8-8.74,15.76-19.36,40.94,14.73-17.82,29.29-36.66,29.29-42.65,0-2.06-.69-4.11-2.57-4.11s-4.62,1.71-7.36,5.82"/>
  <path class="cls-3" d="M253.03,96.27c0-11.31,7.54-28.26,22.1-37.86.34-.17.69-.34,1.03-.34,1.2,0,2.22,1.03,2.22,2.06,0,.68-.34,1.37-1.03,1.89-12.67,8.39-20.04,23.98-20.04,34.26,0,5.31,2.4,10.11,7.54,10.11,6.85,0,12.67-5.48,16.79-9.77-4.11-3.08-6.17-8.22-6.17-15.07,0-8.39,5.31-24.84,15.07-24.84,6.17,0,7.54,7.71,7.54,12.16,0,9.76-4.62,18.84-9.76,26.21.86.17,1.71.34,2.57.34,5.48,0,11.82-4.28,19.87-13.53.52-.52,1.2-.69,1.71-.69,1.37,0,1.89,1.2,1.89,2.23,0,.52-.17,1.03-.52,1.37-7.02,7.88-14.73,14.9-23.12,14.9-1.71,0-3.43-.34-5.31-1.03-5.65,6.34-12.68,11.99-20.55,11.99s-11.82-7.37-11.82-14.39M279.75,81.53c0,3.26.52,8.91,4.45,11.65,5.48-7.37,9.59-15.59,9.59-24.15,0-2.4-.34-8.05-3.26-8.05-6.34,0-10.79,13.7-10.79,20.55"/>
  <path class="cls-2" d="M313.31,100.38c0-7.03,2.06-13.71,4.11-19.7l-3.59,3.94c-.52.52-1.03.68-1.54.68-1.37,0-2.23-1.03-2.23-2.06,0-.52.17-1.03.52-1.37,1.71-1.71,5.65-6.34,11.13-13.36,14.05-37.51,21.24-50.53,23.47-54.64,6.34-11.65,11.65-13.88,14.9-13.88,4.28,0,6,3.94,6,7.54,0,2.22-.51,4.79-1.71,7.19-6.34,13.19-25.69,39.22-38.88,56.01-3.59,9.59-6.68,18.67-7.54,24.84-.17,1.89-.34,3.43-.34,4.62,0,3.43.34,6.17,4.11,6.17,5.31,0,19.18-17.47,26.21-24.49.51-.52,1.03-.86,1.71-.86,1.37,0,2.06,1.2,2.06,2.23,0,.51-.34,1.2-.69,1.54-7.36,7.37-21.07,26.04-29.8,26.04-5.82,0-7.88-5.65-7.88-10.45M348.94,15.93c-6.51,11.31-13.19,28.61-17.99,40.77,11.65-15.42,24.5-33.74,29.46-43.85,1.03-2.06,1.37-3.94,1.37-5.31,0-1.72-.51-3.26-1.88-3.26-2.06,0-6,2.91-10.96,11.65"/>
  <path class="cls-2" d="M344.99,96.27c0-11.31,7.54-28.26,22.1-37.86.34-.17.69-.34,1.03-.34,1.2,0,2.22,1.03,2.22,2.06,0,.68-.34,1.37-1.03,1.89-12.67,8.39-20.04,23.98-20.04,34.26,0,5.31,2.4,10.11,7.54,10.11,6.85,0,12.67-5.48,16.79-9.77-4.11-3.08-6.17-8.22-6.17-15.07,0-8.39,5.31-24.84,15.07-24.84,6.17,0,7.54,7.71,7.54,12.16,0,9.76-4.62,18.84-9.76,26.21.86.17,1.71.34,2.57.34,5.48,0,11.82-4.28,19.87-13.53.52-.52,1.2-.69,1.71-.69,1.37,0,1.89,1.2,1.89,2.23,0,.52-.17,1.03-.52,1.37-7.02,7.88-14.73,14.9-23.12,14.9-1.71,0-3.43-.34-5.31-1.03-5.65,6.34-12.68,11.99-20.55,11.99s-11.82-7.37-11.82-14.39M371.71,81.53c0,3.26.52,8.91,4.45,11.65,5.48-7.37,9.59-15.59,9.59-24.15,0-2.4-.34-8.05-3.26-8.05-6.34,0-10.79,13.7-10.79,20.55"/>
  <path class="cls-4" d="M418.46,103.8c0-5.31,5.14-13.88,8.39-19.02,0,0,4.11-6.85,6.34-11.47.68-1.55,1.2-2.91,1.2-3.94s-.35-1.71-2.4-1.71h-3.59c-2.23,0-4.46-.69-5.31-3.26-4.63,5.82-10.62,12.85-17.3,20.38-.35.52-1.03.69-1.55.69-1.37,0-2.06-1.03-2.06-2.06,0-.52.17-1.03.52-1.54,6.68-7.54,12.68-14.73,17.3-20.38,2.4-3.08,4.11-4.96,5.48-6.68.34-.51,1.2-1.03,1.88-1.03,1.54,0,2.22,1.03,2.22,1.89,0,.68-.34,1.54-.85,2.4-1.37,2.57-1.54,4.11-1.54,4.62,0,.69,1.2.69,2.23.69h3.59c3.26,0,5.66,2.4,5.66,5.31,0,4.45-4.97,12.85-8.22,18.33-3.43,5.83-7.71,12.85-7.71,16.79,0,1.71,1.37,2.74,2.74,2.74.68,0,1.54-.17,2.22-.69,8.74-6.34,17.81-17.64,24.15-23.98.34-.34,1.03-.69,1.54-.69,1.03,0,2.22,1.03,2.22,2.06,0,.51-.34,1.2-.69,1.54-5.48,6-16.62,18.85-24.84,24.67-1.37.86-3.08,1.37-4.62,1.37-4.11,0-7.03-3.26-7.03-7.02"/>
  <path class="cls-4" d="M448.94,96.27c0-11.31,7.54-28.26,22.1-37.86.34-.17.69-.34,1.03-.34,1.2,0,2.23,1.03,2.23,2.06,0,.68-.34,1.37-1.03,1.89-12.67,8.39-20.04,23.98-20.04,34.26,0,5.31,2.4,10.11,7.54,10.11,6.85,0,12.67-5.48,16.79-9.77-4.11-3.08-6.17-8.22-6.17-15.07,0-8.39,5.31-24.84,15.07-24.84,6.17,0,7.54,7.71,7.54,12.16,0,9.76-4.63,18.84-9.76,26.21.86.17,1.71.34,2.57.34,5.48,0,11.82-4.28,19.87-13.53.52-.52,1.2-.69,1.71-.69,1.37,0,1.89,1.2,1.89,2.23,0,.52-.17,1.03-.52,1.37-7.02,7.88-14.73,14.9-23.12,14.9-1.71,0-3.43-.34-5.31-1.03-5.65,6.34-12.68,11.99-20.55,11.99s-11.82-7.37-11.82-14.39M475.66,81.53c0,3.26.52,8.91,4.45,11.65,5.48-7.37,9.59-15.59,9.59-24.15,0-2.4-.34-8.05-3.26-8.05-6.34,0-10.79,13.7-10.79,20.55"/>
  <path class="cls-1" d="M574.83,89.41c-6.85,11.48-15.59,21.24-25.52,21.24-7.2,0-8.91-5.14-8.91-10.45,0-2.91.51-6.34,1.37-9.94-8.57,10.79-18.67,20.73-26.38,20.73-5.31,0-7.2-3.6-7.2-7.88,0-5.83,3.26-14.56,8.22-25.87l-6.68,7.54c-.52.52-.86.69-1.55.69-1.37,0-2.06-1.2-2.06-2.23,0-.52.17-1.03.52-1.37,11.13-12.16,14.39-16.96,17.3-22.27,0,0,.17-.34.51-.85.34-.52,1.03-.86,1.89-.86,1.2,0,2.06.86,2.06,2.23,0,.34-.17.68-.34,1.03-1.88,4.28-3.43,8.39-5.65,13.36-4.45,9.94-9.94,22.78-9.94,28.78,0,2.23.52,3.43,2.74,3.43,9.08,0,22.78-17.47,31.52-30.66,2.91-7.19,6.17-13.02,7.54-15.07.52-.69,1.37-1.72,2.74-1.72s2.23,1.03,2.23,2.06c0,3.25-6.51,13.36-8.74,16.79-3.08,7.54-6,16.1-6,22.1,0,3.94,1.03,6.34,4.97,6.34,10.62,0,20.04-15.42,26.89-28.61,2.23-7.37,5.66-14.05,7.71-17.13.69-1.03,1.54-1.54,2.23-1.54,1.54,0,2.23,1.2,2.23,2.4s-6.17,13.53-8.39,18.33c-.86,2.74-1.37,5.14-1.37,7.02,0,3.26,1.88,5.14,5.14,5.14,3.94,0,8.91-3.43,14.56-10.28.52-.52,1.2-.68,1.72-.68,1.37,0,1.89,1.03,1.89,2.05,0,.51-.17,1.03-.52,1.54-6.51,7.71-12.33,11.65-17.64,11.65-4.63,0-8.74-2.74-9.08-7.02"/>
  <path class="cls-1" d="M595.02,96.61c0-14.39,13.53-39.23,28.61-39.23,5.31,0,8.74,2.91,8.74,7.71,0,7.88-10.45,17.47-31.52,21.93-1.03,3.6-1.54,6.68-1.54,9.94,0,5.83,2.57,9.76,8.39,9.76,8.05,0,21.58-7.36,36.83-24.84.34-.52,1.03-.69,1.71-.69,1.37,0,1.89,1.37,1.89,2.23,0,.52-.17,1.03-.52,1.37-14.39,16.62-28.95,26.21-39.57,26.21-9.42,0-13.02-6.85-13.02-14.39M602.73,82.22c17.81-4.45,25.35-12.5,25.35-17.3,0-2.57-2.91-3.26-4.45-3.26-8.91,0-17.47,13.02-20.9,20.56"/>
</svg>